<svg id="Layer_1" data-name="Layer 1" xmlns="http://www.w3.org/2000/svg" viewBox="0 0 62.86 79.01"><defs><style>.cls-1{fill:#1d1d1b;}.cls-2{fill:#f9c815;}</style></defs><rect class="cls-1" width="7.88" height="79.01"/><rect class="cls-1" x="39.41" y="0.38" width="7.88" height="31.56" transform="translate(7.49 47.29) rotate(-90)"/><rect class="cls-1" x="39.41" y="71.52" width="7.88" height="31.56" transform="translate(-63.65 118.42) rotate(-90)"/><path class="cls-1" d="M60,12.23A18.93,18.93,0,1,0,78.89,31.16,18.93,18.93,0,0,0,60,12.23Zm0,30A11.07,11.07,0,1,1,71.29,31.16,11.21,11.21,0,0,1,60,42.23Z" transform="translate(-19.69 -12.23)"/><rect class="cls-2" x="12.08" y="11.88" width="7.88" height="55.23"/><polygon class="cls-2" points="46.26 67.11 37.16 67.11 21.1 39.28 27.92 35.34 46.26 67.11"/><polygon class="cls-2" points="15.85 50.93 13.75 41.89 43.76 11.88 54.9 11.88 15.85 50.93"/><path class="cls-1" d="M59.13,44.4A23.42,23.42,0,1,0,82.55,67.82,23.43,23.43,0,0,0,59.13,44.4Zm0,38.87A15.47,15.47,0,1,1,74.6,67.81,15.46,15.46,0,0,1,59.13,83.27Z" transform="translate(-19.69 -12.23)"/></svg>